<?xml version="1.0" encoding="utf-8"?>
<!-- Generator: Adobe Illustrator 25.3.1, SVG Export Plug-In . SVG Version: 6.00 Build 0)  -->
<svg version="1.1" id="Layer_1" xmlns="http://www.w3.org/2000/svg" xmlns:xlink="http://www.w3.org/1999/xlink" x="0px" y="0px"
	 viewBox="0 0 170.9 96.4" style="enable-background:new 0 0 170.9 96.4;" xml:space="preserve">
<style type="text/css">
	.st0{fill:#E3DDD8;}
</style>
<g>
	<g>
		<g>
			<path class="st0" d="M112.9,79.3c-0.3,0.3-0.7,0.4-1,0.6c-0.3,0.1-0.7,0.2-1,0.2c-0.7,0-1.3-0.2-1.8-0.7c-0.5-0.4-0.8-1-0.8-1.8
				c0-0.7,0.3-1.3,0.8-1.8s1.2-0.7,1.9-0.7c0.7,0,1.2,0.2,1.6,0.6s0.6,0.9,0.6,1.4s-0.1,0.9-0.4,1.2c-0.3,0.4-0.6,0.5-1,0.5
				c-0.2,0-0.3,0-0.4-0.1s-0.2-0.2-0.2-0.4v-0.1c-0.2,0.4-0.5,0.6-0.9,0.6c-0.3,0-0.5-0.1-0.7-0.3c-0.2-0.2-0.3-0.4-0.3-0.7
				c0-0.4,0.1-0.8,0.4-1.1c0.3-0.3,0.6-0.5,0.9-0.5c0.4,0,0.6,0.2,0.8,0.5l0.1-0.4h0.5l-0.4,1.5c-0.1,0.2-0.1,0.3-0.1,0.4
				s0,0.2,0.1,0.2c0,0,0.1,0.1,0.2,0.1c0.2,0,0.4-0.1,0.6-0.4s0.3-0.6,0.3-1c0-0.5-0.2-0.9-0.5-1.2c-0.4-0.3-0.8-0.5-1.4-0.5
				c-0.7,0-1.2,0.2-1.7,0.6c-0.4,0.4-0.7,1-0.7,1.6s0.2,1.1,0.6,1.5s1,0.6,1.6,0.6s1.3-0.2,1.8-0.7L112.9,79.3z M111.2,76.6
				c-0.1-0.1-0.2-0.1-0.3-0.1c-0.2,0-0.3,0.1-0.4,0.2c-0.1,0.2-0.2,0.3-0.3,0.5c-0.1,0.2-0.1,0.4-0.1,0.5c0,0.2,0,0.3,0.1,0.4
				s0.2,0.2,0.3,0.2c0.2,0,0.3-0.1,0.4-0.3c0.1-0.2,0.2-0.4,0.3-0.6c0.1-0.2,0.1-0.4,0.1-0.5C111.3,76.8,111.3,76.7,111.2,76.6z"/>
			<path class="st0" d="M119.7,77l2,2.9h-1l-1.6-2.3l-0.7,0.7v1.6h-0.8v-4.8h0.8v2.2l2.1-2.2h1.1L119.7,77z"/>
			<path class="st0" d="M127.3,79.7c-0.3,0.2-0.6,0.3-1,0.3c-0.5,0-0.9-0.2-1.2-0.5c-0.3-0.3-0.5-0.8-0.5-1.3s0.2-1,0.5-1.3
				c0.3-0.4,0.7-0.5,1.2-0.5s0.9,0.2,1.2,0.5c0.3,0.3,0.4,0.8,0.4,1.4v0.1h-2.6c0,0.3,0.1,0.6,0.3,0.8c0.2,0.2,0.4,0.3,0.7,0.3
				c0.2,0,0.4,0,0.5-0.2c0.1-0.1,0.2-0.3,0.3-0.5h0.7C127.7,79.2,127.6,79.5,127.3,79.7z M126.8,77.1c-0.2-0.2-0.4-0.3-0.6-0.3
				c-0.3,0-0.5,0.1-0.6,0.2c-0.2,0.2-0.2,0.4-0.3,0.7h1.8C127.1,77.5,127,77.3,126.8,77.1z"/>
			<path class="st0" d="M131.9,76.9c0.3-0.4,0.6-0.5,1.1-0.5s0.8,0.2,1.1,0.5s0.4,0.8,0.4,1.3c0,0.6-0.1,1-0.4,1.3
				c-0.3,0.3-0.7,0.5-1.1,0.5c-0.5,0-0.9-0.2-1.1-0.6v0.5h-0.7v-4.8h0.8v1.8H131.9z M132.1,77.3c-0.2,0.2-0.3,0.5-0.3,0.9
				s0.1,0.7,0.3,0.9c0.2,0.2,0.4,0.3,0.7,0.3s0.5-0.1,0.7-0.3c0.2-0.2,0.3-0.5,0.3-0.9s-0.1-0.7-0.3-0.9c-0.2-0.2-0.4-0.3-0.7-0.3
				C132.5,76.9,132.3,77,132.1,77.3z"/>
			<path class="st0" d="M141,79.9h-0.7v-0.5c-0.3,0.4-0.7,0.6-1.1,0.6c-0.4,0-0.7-0.1-0.9-0.3c-0.2-0.2-0.3-0.5-0.3-0.9v-2.3h0.8v2
				c0,0.1,0,0.2,0,0.3c0,0.1,0,0.2,0,0.2c0,0.1,0.1,0.2,0.1,0.2s0.1,0.1,0.2,0.1c0.1,0,0.2,0.1,0.3,0.1c0.3,0,0.5-0.1,0.6-0.3
				c0.1-0.2,0.2-0.5,0.2-0.8v-1.8h0.8L141,79.9L141,79.9z"/>
			<path class="st0" d="M145.2,76.9c0.3-0.4,0.7-0.6,1.1-0.6c0.4,0,0.7,0.1,0.9,0.3c0.2,0.2,0.3,0.5,0.3,0.9v2.3h-0.8v-2
				c0-0.1,0-0.3,0-0.3c0-0.1,0-0.2-0.1-0.3c0-0.1-0.1-0.2-0.2-0.2c-0.1,0-0.2-0.1-0.4-0.1c-0.6,0-0.8,0.4-0.8,1.1v1.9h-0.8v-3.5h0.7
				v0.5H145.2z"/>
			<path class="st0" d="M159,75.8h-1.5v4h-0.8v-4h-1.5v-0.7h3.9L159,75.8L159,75.8z"/>
			<path class="st0" d="M164,79.7c-0.3,0.2-0.6,0.3-1,0.3c-0.5,0-0.9-0.2-1.2-0.5s-0.5-0.8-0.5-1.3s0.2-1,0.5-1.3
				c0.3-0.4,0.7-0.5,1.2-0.5s0.9,0.2,1.2,0.5s0.4,0.8,0.4,1.4v0.1H162c0,0.3,0.1,0.6,0.3,0.8c0.2,0.2,0.4,0.3,0.7,0.3
				c0.2,0,0.4,0,0.5-0.2c0.1-0.1,0.2-0.3,0.3-0.5h0.7C164.4,79.2,164.3,79.5,164,79.7z M163.5,77.1c-0.2-0.2-0.4-0.3-0.6-0.3
				c-0.3,0-0.5,0.1-0.6,0.2c-0.2,0.2-0.2,0.4-0.3,0.7h1.8C163.8,77.5,163.7,77.3,163.5,77.1z"/>
			<path class="st0" d="M168.6,76.9c0.3-0.4,0.6-0.6,1.1-0.6c0.4,0,0.7,0.1,0.9,0.3c0.2,0.2,0.3,0.5,0.3,0.9v2.3h-0.8v-2.1
				c0-0.3,0-0.5-0.1-0.6s-0.3-0.2-0.5-0.2c-0.3,0-0.5,0.1-0.6,0.3c-0.1,0.2-0.2,0.4-0.2,0.8v1.9h-0.8v-4.8h0.8L168.6,76.9
				L168.6,76.9z"/>
		</g>
	</g>
	<g>
		<path class="st0" d="M115.6,9.5c-1.9-5.9-6.9-8.8-12.7-9.4C84.4-1.4,62.6,17.3,51.2,30.4c-1.1,1.3-2.3,2.7-3.4,4.1
			c0.9,0.1,0.5,0.1,1.3,0.2c11.7-13.8,28-28.3,44.5-32.5c6.7-1.6,16.7-1.4,20.2,6.9c3.7,8.7,0.2,19.5-3,27.6h0.7
			C115.8,27.4,118.2,17.5,115.6,9.5z"/>
		<path class="st0" d="M89.5,67.8C82.3,75.6,74.1,82.7,64.8,88c-7.4,4.1-15.6,7.8-24.2,7c-5.9-0.6-10.1-4.4-11.3-10.2
			C28,78,29.7,70.4,32.7,63.1c-0.5-0.6-1-1.2-1.4-1.8c-2.4,6.1-4,12.3-4.2,18.3c-0.1,7.1,2.7,13.9,10,16.1
			c17.2,4.7,41.1-15.2,52.8-28C89.8,67.8,89.7,67.8,89.5,67.8z"/>
	</g>
	<g>
		<g>
			<path class="st0" d="M16.4,32.2c3.6,0,8.5,1.5,10.7,3.4c1.8,1.6,2.2,3.8,0.8,4.8c-1,0.6-2.5-0.1-3-1.1c-2.1-3.7-5.7-5.9-9.9-5.9
				c-6.5,0-10.4,5.2-10.4,13.8c0,9,4.3,14.1,11.7,14.1c5.5,0,9.8-2.1,12.5-6l0.9,0.6c-3.3,5.1-7.9,7.7-13.7,7.7
				c-9.8,0-16-6.1-16-15.7C0,38.2,6.3,32.2,16.4,32.2z"/>
			<path class="st0" d="M56.2,51.5H39c0.2,6.1,3.9,10.1,9.7,10.1c3.2,0,5.4-1.1,7.1-3.9l0.8,0.6c-1.7,3.2-5.8,5.3-10.3,5.3
				c-6.8,0-11.7-4.7-11.7-11.4c0-7.3,4-11.3,11.5-11.3c6.5,0,10.5,3.5,10.5,9.1C56.5,50.8,56.4,51.3,56.2,51.5z M51.9,50.5
				c0.2-5.8-1.9-8.6-6.3-8.6c-3.9,0-6.3,3.2-6.5,8.6H51.9z"/>
			<path class="st0" d="M59.9,63.2v-0.7c1.5-0.1,3.4-0.4,3.4-3.1V35.3c0-2-1.4-2.1-3.2-1.7L59.9,33l6.3-1.6c0.5-0.1,1.2,0.1,1.2,0.9
				v27.2c0,2.7,1.9,3,3.4,3.1v0.7L59.9,63.2L59.9,63.2z"/>
			<path class="st0" d="M95.6,51.5H78.5c0.2,6.1,3.9,10.1,9.7,10.1c3.2,0,5.4-1.1,7.1-3.9l0.8,0.6c-1.7,3.2-5.8,5.3-10.3,5.3
				c-6.8,0-11.7-4.7-11.7-11.4c0-7.3,4-11.3,11.5-11.3c6.5,0,10.5,3.5,10.5,9.1C96,50.8,95.9,51.3,95.6,51.5z M91.3,50.5
				c0.2-5.8-1.9-8.6-6.3-8.6c-3.9,0-6.3,3.2-6.5,8.6H91.3z"/>
			<path class="st0" d="M111.1,41.9c-3.1,0-5.6,2.1-5.6,4.7c0,6.6,16.6,2.3,16.6,10.5c0,4.1-4.1,6.5-10.8,6.5
				c-2.7,0-4.9-0.4-6.9-1.3c-3.1-1.4-4.7-3.5-3.6-4.8c0.7-0.8,2.2-0.6,2.9,0.3c2.8,3.6,4.8,4.8,7.9,4.8c3.7,0,6.6-1.9,6.6-4.5
				c0-6-16.6-1.9-16.6-10.7c0-4.1,3.6-6.6,9.6-6.6c2.1,0,3.9,0.4,5.5,0.9c3.3,1.2,5.2,3,4.2,4.4c-0.7,0.8-2.2,0.8-2.9-0.1
				C115.6,43.1,113.4,41.9,111.1,41.9z"/>
			<path class="st0" d="M143.6,57.7l0.7,0.6c-1.9,3.5-4.6,5.3-8.1,5.3c-4.1,0-6.5-2.5-6.5-6.6V42.4h-5.2v-1.1h5.2v-6.7l2.9-1.5
				l1.2,0.4v7.7h10.5v1.1h-10.5v13.9c0,4.2,1.2,6.2,3.8,6.2C139.8,62.4,141.9,60.8,143.6,57.7z"/>
			<path class="st0" d="M155.1,59.7c-1.2,1.5-1,2.4,0.7,2.4h6.2c3.4,0,6.7-3.7,6.1-7.5l0.6-0.1L170,62c0.1,0.6-0.1,1.2-0.9,1.2
				h-20.3V62l13.9-17.2c1.2-1.5,1-2.4-0.7-2.4h-7.3c-2.8,0-4.8,2.9-4.1,6.2l-0.6,0.1l-1.6-6.3c-0.1-0.6,0.1-1.2,0.9-1.2h19.8v1.1
				L155.1,59.7z"/>
		</g>
	</g>
	<g>
		<g>
			<path class="st0" d="M10.6,19.4H8.4V25H7.3v-5.6H5.2v-1h5.4V19.4z"/>
			<path class="st0" d="M14.1,20.9c0.4-0.5,0.9-0.8,1.5-0.8c0.5,0,0.9,0.1,1.2,0.4c0.3,0.3,0.4,0.7,0.4,1.2V25h-1.1v-2.9
				c0-0.4-0.1-0.6-0.2-0.8c-0.1-0.2-0.4-0.3-0.7-0.3c-0.4,0-0.7,0.1-0.9,0.4S14,22,14,22.5V25h-1v-6.6h1.1V20.9z"/>
			<path class="st0" d="M23.8,24.7c-0.4,0.3-0.9,0.4-1.4,0.4c-0.7,0-1.3-0.2-1.7-0.7c-0.5-0.4-0.7-1-0.7-1.7c0-0.8,0.2-1.4,0.7-1.9
				c0.4-0.5,1-0.7,1.7-0.7s1.3,0.2,1.7,0.7c0.4,0.5,0.6,1.1,0.6,2v0.1h-3.5c0,0.5,0.1,0.9,0.4,1.1c0.2,0.3,0.5,0.4,1,0.4
				c0.3,0,0.5-0.1,0.7-0.2s0.3-0.4,0.4-0.7h1C24.4,24,24.2,24.5,23.8,24.7z M23.2,21.2c-0.2-0.2-0.5-0.3-0.9-0.3
				c-0.3,0-0.6,0.1-0.8,0.3c-0.2,0.2-0.3,0.5-0.4,1h2.5C23.5,21.8,23.4,21.5,23.2,21.2z"/>
		</g>
	</g>
</g>
</svg>
